<?xml version="1.0" encoding="UTF-8"?>
<svg id="Layer_1" xmlns="http://www.w3.org/2000/svg" version="1.1" viewBox="0 0 660 210.75">
  <!-- Generator: Adobe Illustrator 29.6.1, SVG Export Plug-In . SVG Version: 2.1.1 Build 9)  -->
  <defs>
    <style>
      .st0 {
        fill: #bca35d;
      }
    </style>
  </defs>
  <path class="st0" d="M234,60c.19,2.26-2.55,1.49-4.5,3.37-1.29,1.25-2.79,4.39-3.64,6.11-8.59,17.45-13.61,39.4-22.24,56.51-.42.83-.65,1.7-1.49,2.25l-16.88-43.48-17.61,42.76c-1.17,1.76-2.36-1.6-2.77-2.49-8.34-18.41-13.61-39.87-22-58.25-1.64-3.58-1.89-4.52-5.6-6.39,2.48-2.59,6.52-.5,9.37-.38,3.38.13,9.24-.85,11.68,1.07,3.9,3.09,13.27,37.93,15.32,37.92l8.41-21.24c-.06-1.07-5.01-14.03-5.74-14.96-.98-1.24-3.29-.97-3.79-2.78h19.12c1.46,0,3.36,2.98,4.03,4.22,2.14,3.95,11.36,34.77,13.22,34.77,2.7-5.46,5.74-12.06,7.7-17.79s5.12-14.95-1.8-18.85c-1.62-.91-4.02-.47-4.78-2.35h24Z"/>
  <path class="st0" d="M503.25,60v24c-1.59.22-1.22.09-1.68-.95-1.72-3.85-1.63-7.25-4.45-11.29-6.85-9.82-23.48-12.08-28.2.78-3.37,9.19-3.58,35.15-.55,44.47,2.17,6.67,7.57,8.82,14.26,8.22s3.95-2.88,4.2-7.03c.46-7.68,3.58-19.77-3.82-24.45h16.88c.7,0,4.12,2.22,4.12,3.38v31.88c-1.74.32-2.13-1.68-3.52-2.1-4.08-1.21-19.3,2.52-26.09,2.09-19.87-1.28-25.31-12.67-25.91-31.08-.78-23.71,6.13-38.44,31.94-37.94,4.97.1,15.44,3.29,19.32,2.13,1.39-.42,1.78-2.42,3.52-2.1Z"/>
  <path class="st0" d="M324,96.75v-25.12c0-1.25-2.28-6.05-3.34-7.16-1.83-1.92-3.35-1.9-5.51-2.78-1.14-.46-2.02.45-1.65-1.69h25.5c.39,2.17-.57,1.21-1.66,1.68-8.88,3.84-7.23,7.26-8.06,15.97-.09.95-.78,1.98-.78,2.22v48.38l-2.28-.51-38.97-48.99v37.12c0,.87,2.2,6.65,2.98,7.52,2.17,2.44,5.69,1.75,7.52,4.1h-25.5c-.4-2.28.67-1.15,1.77-1.57,3.72-1.4,4.79-1.6,6.33-5.71,2.76-7.35,3.61-43.24,1.76-50.95-.45-1.86-1.31-4.2-2.72-5.53l-7.14-3.73h19.88c1.51,0,4.17,2.6,5.26,3.74,8.36,8.79,15.44,21.19,23.64,30.36.84.94,1.8,2.15,2.98,2.65Z"/>
  <path class="st0" d="M422.25,60.75h26.25c-1.77,2.3-4.8,1.56-7.07,3.81-1.98,1.97-3.05,6.65-3.34,9.41-.8,7.65.44,15.64-.87,23.13l.03,31.9-41.25-50.25v35.62c0,1.44,1.7,7.22,2.66,8.59,1.78,2.55,3.67,2.57,6.19,3.59,1.14.46,2.02-.45,1.65,1.69h-25.5c-.39-2.16.56-1.22,1.65-1.69,6.17-2.64,6.95-4.97,8.01-11.53,1.46-9.07,2.13-35.97.66-44.73-.26-1.57-1.71-5.07-2.86-6.14l-7.46-3.42h21.38l3.37,2.63,26.63,34.11c2.6-2.71.45-6.95.34-10.08-.21-6.39,1.64-18.28-3.33-22.92-2.21-2.06-5.45-1.49-7.14-3.74Z"/>
  <path class="st0" d="M562.5,74.62c-.09,1.01-.57,3.05-.77,4.49-.14,1.03-.36,2.33-1.47,1.13-1.53-11.91-13.44-19.12-24.77-15.39-8.17,2.69-8.98,12.64-1.74,17.51,11.07,7.45,34.05,4,33.26,25.22-.69,18.62-17.66,22.69-33.37,21.39-3.9-.32-11.8-3.19-14.93-2.13-1.43.48-.58,2.83-2.7,2.15v-23.25c1.7-.29,1.2.07,1.68.96,2.22,4.1,2.16,7.92,5.95,12.04,9.02,9.83,31.92,10.19,29.08-7.33-2.04-12.59-29.82-8.04-36.1-23.14-4.45-10.71,1.59-21.81,11.95-25.84,10.49-4.08,17.95-.14,27.56-.13,4.95,0,3.2-1.57,4.17-2.28.62-.46,2.22.72,2.22,1.1,0,4.3.37,9.32,0,13.5Z"/>
  <path class="st0" d="M134.25,59.25v18.75c-2.06-1.26-2.02-4.15-3.13-6.24-2.53-4.73-9.13-9.7-14.54-7.3l-1.07,53.66c.31,1.7.48,3.85,1.46,5.29,1.48,2.18,4.11,1.56,5.28,3.33h-29.99c.47-1.42,2.78-1.24,4.14-2.22.61-.44,2.6-2.95,2.6-3.39v-57.38c-8.28-.96-15.69,5.44-16.86,13.51-.59,1.25-1.89-.02-1.89-.39v-16.5l1.12-1.12h52.88Z"/>
  <path class="st0" d="M347.62,128.25c-.3-.03-2.9-.7-2.62-1.49,4.87-.84,6.33-2.07,6.78-7.1,1.53-16.88-1.18-36.11-.08-53.24-.56-3.62-3.37-4.74-6.7-4.93.41-1.66,2.04-1.42,3.33-1.53,8.85-.74,18.4,1.73,27.41.8-.81,1.52-3.29.93-4.9,2.22-1.29,1.04-1.69,2.55-1.87,4.13-1.95,16.94,1.52,37.47-.02,54.8.15,2.93,3.23,4.82,6.04,4.84.24.23-.97,1.49-1.12,1.49-7.98,0-18.66.87-26.25,0Z"/>
  <path class="st0" d="M266.25,60c.35,1.98-.3,1.16-1.07,1.57-1.94,1.01-4.38,1.25-4.91,4.08-1.15,6.12.2,17.81.01,24.76-.25,9.41-2.16,20.41-.6,29.79.18,1.09,1.01,3.49,1.72,4.28,1.89,2.11,5.02.34,4.85,3.02h-30l5.27-3.35,1.41-3.84c-1.05-16.86,1.63-35.87.1-52.47-.19-2.02-.31-3.38-1.86-4.89-1.81-1.75-3.84-1-4.92-2.95h30Z"/>
  <path class="st0" d="M226.12,141.75l1.12,1.86c-.35,1.75-12.38,1.23-14.65,1.17-1.78-.05-3.42-.78-5.19-.81-27.47-.5-54.99.43-82.46.04l-.44-2.26h101.62Z"/>
  <rect class="st0" x="419.25" y="143.25" width="105" height="2.25"/>
  <path class="st0" d="M378.75,138.75c1.69.32,5.36-.56,6.59.16.74.44,4.03,6.17,6.15,6.59l-.74-6.74h5.25s0,13.49,0,13.49c-1.44-.21-3.44.36-4.72.02-.56-.15-6.03-7.82-8.02-8.26l.74,8.24h-5.25s0-13.49,0-13.49Z"/>
  <path class="st0" d="M307.34,138.16c.74.43,4.03,6.17,6.15,6.59v-6.75s5.25,0,5.25,0c-.99,4.26-1.38,9.35,0,13.49-6.4,1.52-8.23-4.56-12.74-7.49v7.5s-5.26-.01-5.26-.01c1.22-4.02,1.23-9.44,0-13.49,1.68.31,5.36-.57,6.59.16Z"/>
  <path class="st0" d="M327.74,138.76c6.18-2.53,22.5.31,16.82,9.68-3.27,5.39-10.77,1.69-15.67,3.79l-.85-1.53-.3-11.95ZM333,148.5c4.56.52,9.41-.07,6.82-5.7l-6.82-1.05v6.76Z"/>
  <path class="st0" d="M368.77,149.76c-7.82,7.04-23.01-1.72-14.8-9.17,7.8-7.08,22.31,2.41,14.8,9.17ZM359.8,141.88c-8.29,1.74,1.77,12.06,5.86,3.69-.02-3.02-3.13-4.26-5.86-3.69Z"/>
  <path class="st0" d="M281.05,138.18c15.29-2.47,16.78,16.12-.89,13.27-7.56-1.22-8.14-11.82.89-13.27ZM279.93,142.68c-4.79,4.62,9.18,9.4,8.08,1.73-.49-3.41-6.32-3.43-8.08-1.73Z"/>
  <path class="st0" d="M252,151.5l.38-13.5h5.62s-.75,10.51-.75,10.51l11.25-.75-.75,4.5c-.28.36-.95-.75-1.12-.75h-14.62Z"/>
  <path class="st0" d="M572.81,60.91c9.25-1.8,11.45,9.78,4.91,11.68-10.59,3.08-14.68-9.78-4.91-11.68ZM577.5,70.5c.68-.43,1.59.61,2.07-2.03.66-3.68-.7-6.09-4.71-6.27-9.39-.41-5.98,13.78,2.64,8.3l-2.68-1.46-1.15,1.35c-2.07,1.58-3.24-5.08-1.47-6.31.93-.65,4.3-.63,4.99.37l.31,6.05Z"/>
</svg>