<?xml version="1.0" encoding="UTF-8" standalone="no"?>
<!-- Created with Inkscape (http://www.inkscape.org/) by Marsupilami -->
<svg
   xmlns:svg="http://www.w3.org/2000/svg"
   xmlns="http://www.w3.org/2000/svg"
   version="1.0"
   width="1024"
   height="228"
   viewBox="0 0 127.06625 28.284872"
   id="svg4747"
   xml:space="preserve"><defs
     id="defs4750"><clipPath
       id="clipPath4764"><path
         d="M -0.138,841.945 L 595.138,841.945 L 595.138,0.055 L -0.138,0.055 L -0.138,841.945 z "
         id="path4766" /></clipPath><clipPath
       id="clipPath4770"><path
         d="M 0.12,842.04 L 595.08,842.04 L 595.08,0.12 L 0.12,0.12 L 0.12,842.04 z "
         id="path4772" /></clipPath></defs><g
     transform="matrix(1.25,0,0,-1.25,-309.6725,970.00625)"
     id="g4756"><path
       d="M 14,828 L 14,828"
       style="fill:#ffffff;fill-opacity:1;fill-rule:nonzero;stroke:none"
       id="path4758" /><g
       id="g4760"><g
         clip-path="url(#clipPath4764)"
         id="g4762"><g
           clip-path="url(#clipPath4770)"
           id="g4768"><path
             d="M 154.97,521.789 L 437.342,521.789 L 437.342,91.326 L 154.97,91.326 L 154.97,521.789 z "
             style="fill:#ffffff;fill-opacity:1;fill-rule:nonzero;stroke:none"
             id="path4774" /></g></g></g><path
       d="M 69.40625,0 L 69.375,0.375 C 69.375,0.375 69.50248,0.36791016 69.65625,0.40625 C 69.733135,0.42541992 69.811072,0.46120361 69.90625,0.5 C 70.382141,0.69398193 71.011719,1.1570312 70.9375,2.34375 L 70.0625,16.875 C 69.937498,18.772501 68.28125,18.65625 68.28125,18.65625 L 68.28125,19 C 68.281249,18.999999 69.95875,19.06875 71.78125,19.1875 C 73.602503,19.302499 75.3125,19.4375 75.3125,19.4375 L 75.34375,19.09375 C 75.343748,19.09375 73.69125,18.99375 73.8125,17.09375 L 74.8125,2.59375 C 74.936254,0.69625006 76.59375,0.8125 76.59375,0.8125 L 76.625,0.4375 C 76.624997,0.43750001 74.83125,0.305 72.96875,0.1875 C 71.100002,0.066250002 69.40625,9.6756009e-16 69.40625,0 z M 61.96875,0.0625 C 61.444844,0.07203125 61.09375,0.09375 61.09375,0.09375 L 61.09375,0.4375 C 61.09375,0.43750001 62.55,0.5 62.9375,2.6875 C 63.2725,4.4112499 63.3625,8.96625 63.5,12.15625 L 55.25,0.21875 C 54.66125,0.25000001 53.8825,0.325 53.15625,0.375 C 51.2925,0.49625 49.59375,0.59375 49.59375,0.59375 L 49.625,0.96875 C 49.625,0.96875 49.760566,0.95939453 49.96875,1 C 50.072842,1.0203027 50.181067,1.0545728 50.3125,1.09375 C 50.969666,1.2896362 51.894531,1.7710937 52,2.875 C 51.999998,2.8750001 52.36,7.83 52.59375,10.28125 C 52.8275,12.73375 53.03125,14.8775 52.84375,16.875 C 52.811406,17.15125 52.749998,17.410044 52.6875,17.625 C 52.625002,17.839956 52.551631,18.026191 52.46875,18.1875 C 52.137226,18.832734 51.673086,19.063516 51.40625,19.15625 C 51.272832,19.202617 51.1875,19.21875 51.1875,19.21875 L 51.21875,19.5625 C 51.218751,19.5625 52.25875,19.47 53.625,19.40625 C 54.99,19.345 56.21875,19.25 56.21875,19.25 L 56.1875,18.875 C 56.1875,18.875 56.106602,18.872988 55.96875,18.84375 C 55.555195,18.756035 54.6825,18.404062 54.28125,16.78125 C 54.168125,16.357813 54.075371,15.857949 54,15.34375 C 53.924629,14.829551 53.868047,14.296484 53.8125,13.71875 C 53.701406,12.563281 53.608125,11.30875 53.46875,10.0625 C 53.19125,7.5662502 52.96875,3.59375 52.96875,3.59375 L 63.59375,19.0625 L 64.625,19.0625 C 64.624998,19.0625 64.52125,12.7 64.4375,10.25 C 64.406249,7.8012501 64.335,4.27875 64.59375,2.6875 C 64.747031,1.86625 65.027454,1.3582031 65.34375,1.03125 C 65.449182,0.92226563 65.583555,0.820625 65.6875,0.75 C 65.791445,0.679375 65.876091,0.63429687 65.96875,0.59375 C 66.246726,0.47210939 66.46875,0.46875 66.46875,0.46875 L 66.46875,0.09375 C 66.468753,0.093750001 65.23875,0.09 63.875,0.0625 C 63.190626,0.046875 62.492656,0.05296875 61.96875,0.0625 z M 46.59375,0.6875 C 46.593749,0.68749997 44.79,0.86 42.9375,1.09375 C 41.083752,1.3275 39.40625,1.59375 39.40625,1.59375 L 39.46875,1.9375 C 39.46875,1.9375 39.870469,1.8809375 40.3125,2.0625 C 40.423008,2.1078906 40.548035,2.1705811 40.65625,2.25 C 40.980896,2.4882568 41.255156,2.9171875 41.34375,3.625 L 43.21875,18.0625 C 43.456249,19.947499 41.84375,20.125 41.84375,20.125 L 41.875,20.46875 C 41.875,20.46875 43.53375,20.23125 45.34375,20 C 47.156249,19.77125 48.90625,19.59375 48.90625,19.59375 L 48.84375,19.25 C 48.843749,19.249999 47.23625,19.45125 47,17.5625 L 45.21875,3.125 C 44.983749,1.2374999 46.625,1.03125 46.625,1.03125 L 46.59375,0.6875 z M 79.8125,0.75 L 79.78125,1.09375 C 79.781254,1.09375 81.90125,1.6375 81.75,3.40625 C 81.749996,3.40625 81.2125,8.3275 81,10.78125 C 80.780001,13.235 80.5775,15.385 80.03125,17.3125 C 79.621096,18.64375 78.930726,19.099414 78.46875,19.25 C 78.376355,19.280117 78.288565,19.301719 78.21875,19.3125 C 78.079121,19.334063 78,19.3125 78,19.3125 L 77.96875,19.6875 C 77.968752,19.687501 78.9875,19.7825 80.34375,19.96875 C 81.698748,20.153749 82.9375,20.28125 82.9375,20.28125 L 82.96875,19.90625 C 82.968749,19.90625 81.60375,19.695 81.46875,17.46875 C 81.33375,15.72375 81.72625,13.22125 81.90625,10.71875 C 82.090002,8.2137502 82.5625,4.28125 82.5625,4.28125 L 90.21875,21.4375 L 91.21875,21.625 C 91.218749,21.625001 92.265,15.33125 92.625,12.90625 C 92.933438,11.095937 93.337852,8.6943359 93.75,6.96875 C 93.887383,6.3935547 94.051563,5.8796875 94.1875,5.5 C 94.987503,3.4212501 96.40625,3.65625 96.40625,3.65625 L 96.5,3.3125 C 96.499999,3.3125 95.30625,3.09 93.96875,2.8125 C 92.631252,2.535 91.21875,2.3125 91.21875,2.3125 L 91.15625,2.6875 C 91.156247,2.6875001 92.57875,2.98625 92.5625,5.21875 C 92.574996,6.9700001 91.82125,11.46125 91.375,14.625 L 85.4375,1.40625 C 84.851253,1.32625 84.07625,1.24375 83.34375,1.15625 C 81.493753,0.93500006 79.8125,0.75 79.8125,0.75 z M 38.40625,1.65625 C 38.406248,1.65625 36.975,1.8575 35.625,2.0625 C 34.27625,2.26125 32.65625,2.5625 32.65625,2.5625 L 32.6875,2.9375 C 32.6875,2.9374999 33.180156,2.8657813 33.65625,3.125 C 33.775273,3.1898047 33.887415,3.2933716 34,3.40625 C 34.337756,3.7448852 34.605781,4.3117188 34.625,5.3125 C 34.68875,8.6737502 34.5625,12.3975 34.40625,14.90625 C 34.406249,14.90625 30.47875,7.12 29.5625,5.4375 C 29.448281,5.2275 29.358523,5.0458643 29.3125,4.875 C 29.266477,4.7041357 29.274482,4.5416602 29.28125,4.40625 C 29.321856,3.593789 30.15625,3.40625 30.15625,3.40625 L 30.125,3.03125 C 30.125001,3.03125 28.175,3.37875 26.34375,3.75 C 24.51,4.1225001 22.78125,4.53125 22.78125,4.53125 L 22.875,4.90625 C 22.875,4.9062499 24.1875,4.5875 25.09375,6.34375 L 27.15625,9.96875 L 26.5625,16.75 L 21.34375,7.46875 C 20.39875,5.7349998 22.1875,5 22.1875,5 L 22.09375,4.6875 C 22.09375,4.6875002 20.19875,5.09 18.40625,5.5625 C 16.613751,6.035 14.8125,6.5625 14.8125,6.5625 L 14.875,6.9375 C 14.875,6.9375 16.21125,6.55 17.15625,8.28125 L 25.78125,23.53125 L 26.5625,23.3125 L 27.8125,11.125 L 33.9375,21.71875 L 34.65625,21.5625 C 34.656252,21.5625 35.0925,15.47 35.40625,12.25 C 35.66625,9.5825 35.76,6.77125 36.28125,4.6875 C 36.9125,2.3624999 38.40625,2 38.40625,2 L 38.40625,1.65625 z M 104.78125,4.6875 C 104.57216,4.6897314 104.34905,4.69686 104.125,4.71875 C 103.90095,4.74064 103.67292,4.7983191 103.4375,4.84375 C 101.08333,5.2980591 98.266407,7.025 96.75,11.96875 C 94.3275,19.875 98.894998,23.12625 101.1875,23.8125 C 103.07375,24.3775 104.23875,23.855 105.5,24.21875 C 106.545,24.52 106.6875,25.21875 106.6875,25.21875 L 106.90625,25.28125 C 106.90625,25.28125 108.3425,20.2475 108.84375,18.5 C 109.24125,17.128437 110.21406,17.078184 110.6875,17.125 C 110.84531,17.140605 110.96875,17.15625 110.96875,17.15625 L 111.0625,16.8125 C 111.0625,16.8125 109.3575,16.30125 107.5625,15.78125 C 105.76625,15.26125 104.0625,14.78125 104.0625,14.78125 L 103.96875,15.125 C 103.96875,15.125 105.59125,15.58 105.0625,17.40625 C 104.52875,19.2275 103.4375,23.374999 103.4375,23.375 C 103.4375,23.375 102.8475,23.486251 101.65625,23.21875 C 98.60625,22.52875 100.1825,15.56 100.90625,13.1875 C 101.44719,11.405312 102.76475,7.5800586 104.6875,6.125 C 104.84773,6.0037451 105.01895,5.8978763 105.1875,5.8125 C 105.69316,5.5563712 106.23547,5.4651562 106.8125,5.625 C 110.475,6.64125 110.125,12 110.125,12 L 110.5,12.125 L 112,6.78125 L 111.75,6.71875 C 111.23625,7.07125 111.24,7.0212502 110.1875,6.71875 C 110.05672,6.6809375 109.91737,6.6530615 109.78125,6.59375 C 109.64513,6.5344385 109.51526,6.4499805 109.375,6.375 C 108.53342,5.9251172 107.62125,5.2481251 106.78125,4.96875 C 106.32781,4.8184375 105.61762,4.6785742 104.78125,4.6875 z M 120.875,4.875 L 120.875,5.21875 L 121.96875,5.21875 L 121.96875,7.84375 L 122.4375,7.84375 L 122.4375,5.21875 L 123.53125,5.21875 L 123.53125,4.875 L 120.875,4.875 z M 123.9375,4.875 L 123.9375,7.84375 L 124.34375,7.84375 L 124.34375,6.09375 C 124.34375,6.0225 124.34625,5.93 124.34375,5.78125 C 124.33875,5.63375 124.34375,5.5087499 124.34375,5.4375 L 124.34375,5.34375 L 125.28125,7.84375 L 125.71875,7.84375 L 126.65625,5.34375 C 126.65625,5.50375 126.66,5.6737499 126.65625,5.8125 C 126.65,5.95125 126.65625,6.0337499 126.65625,6.09375 L 126.65625,7.84375 L 127.0625,7.84375 L 127.0625,4.875 L 126.4375,4.875 L 125.5,7.375 L 124.5625,4.875 L 123.9375,4.875 z M 14.15625,6.75 C 14.15625,6.7500002 10.41625,7.76375 7.03125,8.875 C 3.6449999,9.9887504 0,11.40625 0,11.40625 L 1.5625,15.78125 L 1.84375,15.65625 C 1.84375,15.65625 1.09,11.52375 5.34375,10.125 L 10.46875,25.5625 C 11.06375,27.37375 9.5,27.875 9.5,27.875 L 9.625,28.21875 C 9.625,28.21875 11.23625,27.6325 12.96875,27.0625 C 14.7025,26.492499 16.34375,26 16.34375,26 L 16.25,25.65625 C 16.25,25.656251 15.631775,25.850769 15.03125,25.5625 C 14.911145,25.504846 14.802139,25.415068 14.6875,25.3125 C 14.458223,25.107363 14.242188,24.826562 14.09375,24.375 L 9.09375,8.90625 C 12.269062,7.8609372 14.118301,9.7206055 14.84375,10.71875 C 15.085566,11.051465 15.1875,11.28125 15.1875,11.28125 L 15.5,11.1875 L 14.15625,6.75 z M 120.25,9.4375 C 118.38215,9.3868164 116.13312,10.166562 115.25,12.5 C 114.74375,13.839219 114.70405,15.087815 114.96875,16.25 C 115.01287,16.443698 115.06455,16.623521 115.125,16.8125 C 115.66906,18.513307 116.84602,20.033437 118.125,21.375 C 119.78789,23.120391 119.45686,26.01683 117.875,27.1875 C 117.58739,27.400349 117.27213,27.542424 116.90625,27.625 C 116.54037,27.707576 116.12273,27.706936 115.6875,27.625 C 115.46988,27.584032 115.23328,27.526016 115,27.4375 C 111.265,26.027501 112.6875,20.0625 112.6875,20.0625 L 112.375,19.9375 L 110.28125,26.0625 L 110.59375,26.1875 C 110.59375,26.187499 110.91875,25.535 111.6875,25.8125 C 112.56375,26.125 112.54625,27.06375 114.9375,28 C 115.08695,28.058516 115.24675,28.083558 115.40625,28.125 C 115.56575,28.166442 115.70736,28.194467 115.875,28.21875 C 116.21028,28.267317 116.58114,28.301826 116.9375,28.28125 C 117.47204,28.250386 118.02357,28.125845 118.5625,27.9375 C 120.1793,27.372465 121.67922,26.117344 122.40625,24.09375 C 123.72578,20.417969 121.06963,18.382446 119.34375,16.25 C 119.17116,16.036755 119.02404,15.842369 118.875,15.625 C 118.12982,14.538156 117.73242,13.362891 118.3125,11.90625 C 119.55,8.7899997 125.015,11.0775 123.90625,16.875 L 124.1875,17 L 126.40625,11.78125 L 126.1875,11.6875 C 126.1875,11.6875 125.78875,12.06375 125.21875,11.84375 C 123.935,11.36125 123.8175,10.4325 121.9375,9.71875 C 121.46687,9.54125 120.87262,9.4543945 120.25,9.4375 z M 44.90625,23.71875 L 44.59375,23.75 L 44.5625,23.75 L 44.28125,23.8125 L 44,23.90625 L 43.9375,23.9375 L 43.71875,24.0625 L 43.6875,24.0625 L 43.4375,24.25 L 43.25,24.4375 L 43.21875,24.46875 L 43.0625,24.6875 L 43.0625,24.71875 L 42.9375,24.9375 L 42.9375,24.96875 L 42.84375,25.1875 L 42.84375,25.21875 L 42.78125,25.46875 L 42.78125,25.5 L 42.75,25.78125 L 42.75,25.8125 L 42.78125,26.0625 L 42.78125,26.09375 L 42.84375,26.375 L 42.84375,26.40625 L 42.90625,26.625 L 42.9375,26.65625 L 43.0625,26.875 L 43.0625,26.90625 L 43.21875,27.125 L 43.25,27.15625 L 43.4375,27.34375 L 43.46875,27.34375 L 43.6875,27.53125 L 43.71875,27.53125 L 43.9375,27.65625 L 44,27.6875 L 44.25,27.78125 L 44.28125,27.78125 L 44.59375,27.84375 L 44.90625,27.875 L 44.9375,27.875 L 45.25,27.84375 L 45.28125,27.84375 L 45.5625,27.78125 L 45.59375,27.78125 L 45.84375,27.6875 L 45.875,27.65625 L 46.125,27.53125 L 46.15625,27.53125 L 46.40625,27.34375 L 46.59375,27.125 L 46.625,27.125 L 46.78125,26.90625 L 46.78125,26.875 L 46.90625,26.65625 L 46.90625,26.625 L 47,26.40625 L 47,26.375 L 47.0625,26.09375 L 47.0625,26.0625 L 47.09375,25.8125 L 47.09375,25.78125 L 47.0625,25.5 L 47.0625,25.46875 L 47,25.21875 L 47,25.1875 L 46.90625,24.96875 L 46.90625,24.9375 L 46.78125,24.71875 L 46.78125,24.6875 L 46.625,24.46875 L 46.59375,24.4375 L 46.40625,24.25 L 46.15625,24.0625 L 46.125,24.0625 L 45.875,23.9375 L 45.84375,23.90625 L 45.59375,23.8125 L 45.5625,23.8125 L 45.28125,23.75 L 45.25,23.75 L 44.9375,23.71875 L 44.90625,23.71875 z M 61.03125,23.71875 L 60.71875,23.75 L 60.6875,23.75 L 60.40625,23.8125 L 60.125,23.90625 L 60.09375,23.9375 L 59.84375,24.0625 L 59.8125,24.0625 L 59.5625,24.25 L 59.375,24.4375 L 59.34375,24.46875 L 59.21875,24.6875 L 59.1875,24.71875 L 59.0625,24.9375 L 59.0625,24.96875 L 58.96875,25.1875 L 58.96875,25.21875 L 58.90625,25.46875 L 58.90625,25.5 L 58.875,25.78125 L 58.875,25.8125 L 58.90625,26.0625 L 58.90625,26.09375 L 58.96875,26.375 L 58.96875,26.40625 L 59.0625,26.625 L 59.0625,26.65625 L 59.1875,26.875 L 59.21875,26.90625 L 59.34375,27.125 L 59.375,27.125 L 59.5625,27.34375 L 59.59375,27.34375 L 59.8125,27.53125 L 59.84375,27.53125 L 60.09375,27.65625 L 60.125,27.6875 L 60.375,27.78125 L 60.40625,27.78125 L 60.71875,27.84375 L 61.03125,27.875 L 61.0625,27.875 L 61.375,27.84375 L 61.40625,27.84375 L 61.6875,27.78125 L 61.71875,27.78125 L 62,27.6875 L 62,27.65625 L 62.25,27.53125 L 62.28125,27.53125 L 62.53125,27.34375 L 62.71875,27.125 L 62.75,27.125 L 62.90625,26.90625 L 62.90625,26.875 L 63.03125,26.65625 L 63.0625,26.625 L 63.125,26.40625 L 63.125,26.375 L 63.1875,26.09375 L 63.1875,26.0625 L 63.21875,25.8125 L 63.21875,25.78125 L 63.1875,25.5 L 63.1875,25.46875 L 63.125,25.21875 L 63.125,25.1875 L 63.03125,24.96875 L 63.03125,24.9375 L 62.90625,24.71875 L 62.90625,24.6875 L 62.75,24.46875 L 62.71875,24.4375 L 62.53125,24.25 L 62.28125,24.0625 L 62.25,24.0625 L 62,23.9375 L 62,23.90625 L 61.71875,23.8125 L 61.6875,23.8125 L 61.40625,23.75 L 61.375,23.75 L 61.0625,23.71875 L 61.03125,23.71875 z M 76.875,23.71875 L 76.5625,23.75 L 76.53125,23.75 L 76.25,23.8125 L 75.96875,23.90625 L 75.9375,23.9375 L 75.6875,24.0625 L 75.65625,24.0625 L 75.40625,24.25 L 75.21875,24.4375 L 75.1875,24.46875 L 75.03125,24.6875 L 75.03125,24.71875 L 74.90625,24.9375 L 74.90625,24.96875 L 74.8125,25.1875 L 74.8125,25.21875 L 74.75,25.46875 L 74.75,25.5 L 74.71875,25.78125 L 74.71875,25.8125 L 74.75,26.0625 L 74.75,26.09375 L 74.8125,26.375 L 74.8125,26.40625 L 74.875,26.625 L 74.90625,26.65625 L 75.03125,26.875 L 75.03125,26.90625 L 75.1875,27.125 L 75.21875,27.15625 L 75.40625,27.34375 L 75.4375,27.34375 L 75.65625,27.53125 L 75.6875,27.53125 L 75.9375,27.65625 L 75.96875,27.6875 L 76.21875,27.78125 L 76.25,27.78125 L 76.53125,27.84375 L 76.5625,27.84375 L 76.875,27.875 L 76.90625,27.875 L 77.21875,27.84375 L 77.25,27.84375 L 77.53125,27.78125 L 77.5625,27.78125 L 77.8125,27.6875 L 77.84375,27.65625 L 78.09375,27.53125 L 78.125,27.53125 L 78.375,27.34375 L 78.5625,27.15625 L 78.59375,27.125 L 78.75,26.90625 L 78.75,26.875 L 78.875,26.65625 L 78.90625,26.625 L 78.96875,26.40625 L 79,26.375 L 79.03125,26.09375 L 79.03125,26.0625 L 79.0625,25.8125 L 79.0625,25.78125 L 79.03125,25.5 L 79.03125,25.46875 L 79,25.21875 L 78.96875,25.1875 L 78.875,24.96875 L 78.875,24.9375 L 78.75,24.71875 L 78.75,24.6875 L 78.59375,24.46875 L 78.5625,24.4375 L 78.375,24.25 L 78.125,24.0625 L 78.09375,24.0625 L 77.84375,23.9375 L 77.8125,23.90625 L 77.5625,23.8125 L 77.53125,23.8125 L 77.25,23.75 L 77.21875,23.75 L 76.90625,23.71875 L 76.875,23.71875 z M 48.1875,23.78125 L 48.5,24.25 L 48.5,24.3125 L 48.5,27.34375 L 48.5,27.375 L 48.1875,27.8125 L 49.78125,27.8125 L 49.46875,27.375 L 49.46875,27.34375 L 49.46875,26.15625 L 50.625,26.15625 L 50.65625,26.15625 L 51.09375,26.4375 L 51.09375,25.125 L 50.65625,25.375 L 50.625,25.40625 L 49.46875,25.40625 L 49.46875,24.5625 L 50.65625,24.5625 L 50.75,24.5625 L 50.78125,24.59375 L 51.1875,24.84375 L 51.1875,23.78125 L 48.1875,23.78125 z M 55.0625,23.78125 L 55.375,24.21875 L 55.375,24.25 L 55.375,24.3125 L 55.375,27.28125 L 55.375,27.34375 L 55.375,27.375 L 55.0625,27.8125 L 58.15625,27.8125 L 58.15625,26.75 L 57.71875,27 L 57.6875,27.03125 L 56.34375,27.03125 L 56.34375,24.3125 L 56.34375,24.25 L 56.34375,24.21875 L 56.6875,23.78125 L 55.0625,23.78125 z M 64.3125,23.78125 L 64.625,24.21875 L 64.625,24.25 L 64.625,24.3125 L 64.625,27.28125 L 64.625,27.34375 L 64.625,27.375 L 64.3125,27.8125 L 65.6875,27.8125 L 65.46875,27.375 L 65.4375,27.34375 L 65.4375,27.28125 L 65.4375,25.28125 L 67.40625,27.8125 L 68.1875,27.8125 L 68.1875,24.3125 L 68.1875,24.25 L 68.1875,24.21875 L 68.53125,23.78125 L 67.03125,23.78125 L 67.375,24.21875 L 67.375,24.25 L 67.375,24.3125 L 67.375,26.25 L 65.46875,23.78125 L 64.3125,23.78125 z M 69.53125,23.78125 L 69.84375,24.21875 L 69.84375,24.25 L 69.875,24.3125 L 69.875,27.28125 L 69.84375,27.34375 L 69.84375,27.375 L 69.53125,27.8125 L 71,27.8125 L 71.40625,27.78125 L 71.78125,27.71875 L 72.125,27.65625 L 72.15625,27.625 L 72.4375,27.53125 L 72.46875,27.5 L 72.75,27.34375 L 72.96875,27.15625 L 73,27.15625 L 73.15625,26.9375 L 73.1875,26.90625 L 73.3125,26.6875 L 73.34375,26.65625 L 73.4375,26.40625 L 73.4375,26.375 L 73.5,26.125 L 73.5,26.09375 L 73.53125,25.8125 L 73.53125,25.78125 L 73.5,25.5 L 73.5,25.46875 L 73.4375,25.21875 L 73.4375,25.1875 L 73.34375,24.9375 L 73.3125,24.90625 L 73.1875,24.6875 L 73.15625,24.65625 L 73,24.4375 L 72.96875,24.4375 L 72.75,24.25 L 72.71875,24.25 L 72.46875,24.09375 L 72.4375,24.0625 L 72.15625,23.96875 L 72.125,23.9375 L 71.78125,23.875 L 71.78125,23.84375 L 71.40625,23.8125 L 71,23.78125 L 69.53125,23.78125 z M 80.125,23.78125 L 80.46875,24.21875 L 80.46875,24.25 L 80.46875,24.3125 L 80.46875,27.28125 L 80.46875,27.34375 L 80.46875,27.375 L 80.125,27.8125 L 81.625,27.8125 L 81.3125,27.375 L 81.28125,27.375 L 81.28125,27.34375 L 81.28125,27.28125 L 81.28125,25.28125 L 83.25,27.8125 L 84.03125,27.8125 L 84.03125,24.3125 L 84.03125,24.25 L 84.03125,24.21875 L 84.34375,23.78125 L 82.90625,23.78125 L 83.21875,24.21875 L 83.21875,24.25 L 83.21875,24.3125 L 83.21875,26.25 L 81.3125,23.78125 L 80.125,23.78125 z M 44.90625,24.5 L 45.09375,24.53125 L 45.28125,24.5625 L 45.4375,24.625 L 45.59375,24.71875 L 45.75,24.84375 L 45.875,25 L 45.96875,25.15625 L 46.03125,25.34375 L 46.09375,25.5625 L 46.09375,25.78125 L 46.09375,26.03125 L 46.03125,26.21875 L 45.96875,26.40625 L 45.875,26.59375 L 45.75,26.75 L 45.59375,26.875 L 45.4375,26.96875 L 45.28125,27.03125 L 45.125,27.0625 L 44.90625,27.09375 L 44.71875,27.0625 L 44.5625,27.03125 L 44.375,26.96875 L 44.21875,26.875 L 44.09375,26.75 L 43.96875,26.59375 L 43.84375,26.40625 L 43.78125,26.25 L 43.75,26.03125 L 43.71875,25.78125 L 43.75,25.5625 L 43.78125,25.34375 L 43.875,25.15625 L 43.96875,25 L 44.09375,24.84375 L 44.21875,24.71875 L 44.375,24.625 L 44.5625,24.5625 L 44.71875,24.53125 L 44.90625,24.5 z M 61.0625,24.5 L 61.25,24.53125 L 61.40625,24.5625 L 61.59375,24.625 L 61.75,24.71875 L 61.875,24.84375 L 62,25 L 62.09375,25.15625 L 62.1875,25.34375 L 62.21875,25.5625 L 62.25,25.78125 L 62.21875,26.03125 L 62.1875,26.21875 L 62.09375,26.40625 L 62,26.59375 L 61.875,26.75 L 61.75,26.875 L 61.59375,26.96875 L 61.40625,27.03125 L 61.25,27.0625 L 61.0625,27.09375 L 60.84375,27.0625 L 60.6875,27.03125 L 60.5,26.96875 L 60.34375,26.875 L 60.21875,26.75 L 60.09375,26.59375 L 60,26.40625 L 59.90625,26.25 L 59.875,26.03125 L 59.875,25.78125 L 59.875,25.5625 L 59.90625,25.34375 L 60,25.15625 L 60.09375,25 L 60.21875,24.84375 L 60.375,24.71875 L 60.5,24.625 L 60.6875,24.5625 L 60.84375,24.53125 L 61.0625,24.5 z M 76.875,24.5 L 77.0625,24.53125 L 77.25,24.5625 L 77.40625,24.625 L 77.5625,24.71875 L 77.71875,24.84375 L 77.84375,25 L 77.9375,25.15625 L 78.03125,25.34375 L 78.0625,25.5625 L 78.0625,25.78125 L 78.0625,26.03125 L 78.03125,26.21875 L 77.9375,26.40625 L 77.84375,26.59375 L 77.71875,26.75 L 77.5625,26.875 L 77.40625,26.96875 L 77.25,27.03125 L 77.09375,27.0625 L 76.875,27.09375 L 76.6875,27.0625 L 76.53125,27.03125 L 76.34375,26.96875 L 76.1875,26.875 L 76.0625,26.75 L 75.9375,26.59375 L 75.84375,26.40625 L 75.78125,26.25 L 75.71875,26.03125 L 75.71875,25.78125 L 75.71875,25.5625 L 75.78125,25.34375 L 75.84375,25.15625 L 75.9375,25 L 76.0625,24.84375 L 76.21875,24.71875 L 76.34375,24.625 L 76.53125,24.5625 L 76.6875,24.53125 L 76.875,24.5 z M 70.8125,24.59375 L 71,24.59375 L 71.28125,24.59375 L 71.5625,24.65625 L 71.78125,24.71875 L 72,24.8125 L 72.15625,24.9375 L 72.3125,25.0625 L 72.40625,25.21875 L 72.5,25.375 L 72.53125,25.59375 L 72.5625,25.78125 L 72.53125,26 L 72.5,26.21875 L 72.40625,26.375 L 72.3125,26.53125 L 72.15625,26.65625 L 72,26.78125 L 71.78125,26.875 L 71.5625,26.9375 L 71.28125,27 L 71,27 L 70.8125,27 L 70.8125,24.59375 z "
       transform="matrix(0.8,0,0,-0.8,247.738,776.005)"
       style="fill:#292526;fill-opacity:1;fill-rule:nonzero;stroke:none"
       id="path4954" /></g></svg>
